<?xml version="1.0" standalone="no"?>
<svg xmlns:xlink="http://www.w3.org/1999/xlink" id="wave" style="transform:rotate(0deg); transition: 0.3s" viewBox="0 0 1440 100" version="1.1" xmlns="http://www.w3.org/2000/svg"><defs><linearGradient id="sw-gradient-0" x1="0" x2="0" y1="1" y2="0"><stop stop-color="rgba(231, 221, 254, 1)" offset="0%"/><stop stop-color="rgba(209.731, 192.061, 222.983, 1)" offset="100%"/></linearGradient></defs><path style="transform:translate(0, 0px); opacity:1" fill="url(#sw-gradient-0)" d="M0,70L26.7,61.7C53.3,53,107,37,160,35C213.3,33,267,47,320,48.3C373.3,50,427,40,480,31.7C533.3,23,587,17,640,23.3C693.3,30,747,50,800,58.3C853.3,67,907,63,960,56.7C1013.3,50,1067,40,1120,30C1173.3,20,1227,10,1280,6.7C1333.3,3,1387,7,1440,6.7C1493.3,7,1547,3,1600,8.3C1653.3,13,1707,27,1760,41.7C1813.3,57,1867,73,1920,76.7C1973.3,80,2027,70,2080,56.7C2133.3,43,2187,27,2240,23.3C2293.3,20,2347,30,2400,36.7C2453.3,43,2507,47,2560,43.3C2613.3,40,2667,30,2720,36.7C2773.3,43,2827,67,2880,63.3C2933.3,60,2987,30,3040,30C3093.3,30,3147,60,3200,68.3C3253.3,77,3307,63,3360,51.7C3413.3,40,3467,30,3520,23.3C3573.3,17,3627,13,3680,11.7C3733.3,10,3787,10,3813,10L3840,10L3840,100L3813.3,100C3786.7,100,3733,100,3680,100C3626.7,100,3573,100,3520,100C3466.7,100,3413,100,3360,100C3306.7,100,3253,100,3200,100C3146.7,100,3093,100,3040,100C2986.7,100,2933,100,2880,100C2826.7,100,2773,100,2720,100C2666.7,100,2613,100,2560,100C2506.7,100,2453,100,2400,100C2346.7,100,2293,100,2240,100C2186.7,100,2133,100,2080,100C2026.7,100,1973,100,1920,100C1866.7,100,1813,100,1760,100C1706.7,100,1653,100,1600,100C1546.7,100,1493,100,1440,100C1386.7,100,1333,100,1280,100C1226.7,100,1173,100,1120,100C1066.7,100,1013,100,960,100C906.7,100,853,100,800,100C746.7,100,693,100,640,100C586.7,100,533,100,480,100C426.7,100,373,100,320,100C266.7,100,213,100,160,100C106.7,100,53,100,27,100L0,100Z"/><defs><linearGradient id="sw-gradient-1" x1="0" x2="0" y1="1" y2="0"><stop stop-color="rgba(236, 227, 253, 1)" offset="0%"/><stop stop-color="rgba(251, 247, 254, 1)" offset="100%"/></linearGradient></defs><path style="transform:translate(0, 50px); opacity:0.9" fill="url(#sw-gradient-1)" d="M0,0L26.7,1.7C53.3,3,107,7,160,15C213.3,23,267,37,320,43.3C373.3,50,427,50,480,45C533.3,40,587,30,640,28.3C693.3,27,747,33,800,43.3C853.3,53,907,67,960,75C1013.3,83,1067,87,1120,88.3C1173.3,90,1227,90,1280,76.7C1333.3,63,1387,37,1440,25C1493.3,13,1547,17,1600,15C1653.3,13,1707,7,1760,6.7C1813.3,7,1867,13,1920,23.3C1973.3,33,2027,47,2080,50C2133.3,53,2187,47,2240,38.3C2293.3,30,2347,20,2400,18.3C2453.3,17,2507,23,2560,25C2613.3,27,2667,23,2720,31.7C2773.3,40,2827,60,2880,60C2933.3,60,2987,40,3040,30C3093.3,20,3147,20,3200,30C3253.3,40,3307,60,3360,56.7C3413.3,53,3467,27,3520,21.7C3573.3,17,3627,33,3680,45C3733.3,57,3787,63,3813,66.7L3840,70L3840,100L3813.3,100C3786.7,100,3733,100,3680,100C3626.7,100,3573,100,3520,100C3466.7,100,3413,100,3360,100C3306.7,100,3253,100,3200,100C3146.7,100,3093,100,3040,100C2986.7,100,2933,100,2880,100C2826.7,100,2773,100,2720,100C2666.7,100,2613,100,2560,100C2506.7,100,2453,100,2400,100C2346.7,100,2293,100,2240,100C2186.7,100,2133,100,2080,100C2026.7,100,1973,100,1920,100C1866.7,100,1813,100,1760,100C1706.7,100,1653,100,1600,100C1546.7,100,1493,100,1440,100C1386.7,100,1333,100,1280,100C1226.7,100,1173,100,1120,100C1066.7,100,1013,100,960,100C906.7,100,853,100,800,100C746.7,100,693,100,640,100C586.7,100,533,100,480,100C426.7,100,373,100,320,100C266.7,100,213,100,160,100C106.7,100,53,100,27,100L0,100Z"/></svg>