<?xml version="1.0" standalone="no"?>
<svg xmlns:xlink="http://www.w3.org/1999/xlink" id="wave" style="transform:rotate(0deg); transition: 0.3s" viewBox="0 0 1440 490" version="1.1" xmlns="http://www.w3.org/2000/svg"><defs><linearGradient id="sw-gradient-0" x1="0" x2="0" y1="1" y2="0"><stop stop-color="rgba(231, 221, 254, 1)" offset="0%"/><stop stop-color="rgba(251, 247, 254, 1)" offset="100%"/></linearGradient></defs><path style="transform:translate(0, 0px); opacity:1" fill="url(#sw-gradient-0)" d="M0,343L48,302.2C96,261,192,180,288,171.5C384,163,480,229,576,236.8C672,245,768,196,864,155.2C960,114,1056,82,1152,114.3C1248,147,1344,245,1440,285.8C1536,327,1632,310,1728,277.7C1824,245,1920,196,2016,147C2112,98,2208,49,2304,32.7C2400,16,2496,33,2592,32.7C2688,33,2784,16,2880,40.8C2976,65,3072,131,3168,204.2C3264,278,3360,359,3456,375.7C3552,392,3648,343,3744,277.7C3840,212,3936,131,4032,114.3C4128,98,4224,147,4320,179.7C4416,212,4512,229,4608,212.3C4704,196,4800,147,4896,179.7C4992,212,5088,327,5184,310.3C5280,294,5376,147,5472,147C5568,147,5664,294,5760,334.8C5856,376,5952,310,6048,253.2C6144,196,6240,147,6336,114.3C6432,82,6528,65,6624,57.2C6720,49,6816,49,6864,49L6912,49L6912,490L6864,490C6816,490,6720,490,6624,490C6528,490,6432,490,6336,490C6240,490,6144,490,6048,490C5952,490,5856,490,5760,490C5664,490,5568,490,5472,490C5376,490,5280,490,5184,490C5088,490,4992,490,4896,490C4800,490,4704,490,4608,490C4512,490,4416,490,4320,490C4224,490,4128,490,4032,490C3936,490,3840,490,3744,490C3648,490,3552,490,3456,490C3360,490,3264,490,3168,490C3072,490,2976,490,2880,490C2784,490,2688,490,2592,490C2496,490,2400,490,2304,490C2208,490,2112,490,2016,490C1920,490,1824,490,1728,490C1632,490,1536,490,1440,490C1344,490,1248,490,1152,490C1056,490,960,490,864,490C768,490,672,490,576,490C480,490,384,490,288,490C192,490,96,490,48,490L0,490Z"/><defs><linearGradient id="sw-gradient-1" x1="0" x2="0" y1="1" y2="0"><stop stop-color="rgba(236, 227, 253, 1)" offset="0%"/><stop stop-color="rgba(251, 247, 254, 1)" offset="100%"/></linearGradient></defs><path style="transform:translate(0, 50px); opacity:0.9" fill="url(#sw-gradient-1)" d="M0,0L48,8.2C96,16,192,33,288,73.5C384,114,480,180,576,212.3C672,245,768,245,864,220.5C960,196,1056,147,1152,138.8C1248,131,1344,163,1440,212.3C1536,261,1632,327,1728,367.5C1824,408,1920,425,2016,432.8C2112,441,2208,441,2304,375.7C2400,310,2496,180,2592,122.5C2688,65,2784,82,2880,73.5C2976,65,3072,33,3168,32.7C3264,33,3360,65,3456,114.3C3552,163,3648,229,3744,245C3840,261,3936,229,4032,187.8C4128,147,4224,98,4320,89.8C4416,82,4512,114,4608,122.5C4704,131,4800,114,4896,155.2C4992,196,5088,294,5184,294C5280,294,5376,196,5472,147C5568,98,5664,98,5760,147C5856,196,5952,294,6048,277.7C6144,261,6240,131,6336,106.2C6432,82,6528,163,6624,220.5C6720,278,6816,310,6864,326.7L6912,343L6912,490L6864,490C6816,490,6720,490,6624,490C6528,490,6432,490,6336,490C6240,490,6144,490,6048,490C5952,490,5856,490,5760,490C5664,490,5568,490,5472,490C5376,490,5280,490,5184,490C5088,490,4992,490,4896,490C4800,490,4704,490,4608,490C4512,490,4416,490,4320,490C4224,490,4128,490,4032,490C3936,490,3840,490,3744,490C3648,490,3552,490,3456,490C3360,490,3264,490,3168,490C3072,490,2976,490,2880,490C2784,490,2688,490,2592,490C2496,490,2400,490,2304,490C2208,490,2112,490,2016,490C1920,490,1824,490,1728,490C1632,490,1536,490,1440,490C1344,490,1248,490,1152,490C1056,490,960,490,864,490C768,490,672,490,576,490C480,490,384,490,288,490C192,490,96,490,48,490L0,490Z"/></svg>