<?xml version="1.0" standalone="no"?>
<svg xmlns:xlink="http://www.w3.org/1999/xlink" id="wave" style="transform:rotate(0deg); transition: 0.3s" viewBox="0 0 1440 280" version="1.1" xmlns="http://www.w3.org/2000/svg"><defs><linearGradient id="sw-gradient-0" x1="0" x2="0" y1="1" y2="0"><stop stop-color="rgba(231, 221, 254, 1)" offset="0%"/><stop stop-color="rgba(251, 247, 254, 1)" offset="100%"/></linearGradient></defs><path style="transform:translate(0, 0px); opacity:1" fill="url(#sw-gradient-0)" d="M0,196L60,172.7C120,149,240,103,360,98C480,93,600,131,720,135.3C840,140,960,112,1080,88.7C1200,65,1320,47,1440,65.3C1560,84,1680,140,1800,163.3C1920,187,2040,177,2160,158.7C2280,140,2400,112,2520,84C2640,56,2760,28,2880,18.7C3000,9,3120,19,3240,18.7C3360,19,3480,9,3600,23.3C3720,37,3840,75,3960,116.7C4080,159,4200,205,4320,214.7C4440,224,4560,196,4680,158.7C4800,121,4920,75,5040,65.3C5160,56,5280,84,5400,102.7C5520,121,5640,131,5760,121.3C5880,112,6000,84,6120,102.7C6240,121,6360,187,6480,177.3C6600,168,6720,84,6840,84C6960,84,7080,168,7200,191.3C7320,215,7440,177,7560,144.7C7680,112,7800,84,7920,65.3C8040,47,8160,37,8280,32.7C8400,28,8520,28,8580,28L8640,28L8640,280L8580,280C8520,280,8400,280,8280,280C8160,280,8040,280,7920,280C7800,280,7680,280,7560,280C7440,280,7320,280,7200,280C7080,280,6960,280,6840,280C6720,280,6600,280,6480,280C6360,280,6240,280,6120,280C6000,280,5880,280,5760,280C5640,280,5520,280,5400,280C5280,280,5160,280,5040,280C4920,280,4800,280,4680,280C4560,280,4440,280,4320,280C4200,280,4080,280,3960,280C3840,280,3720,280,3600,280C3480,280,3360,280,3240,280C3120,280,3000,280,2880,280C2760,280,2640,280,2520,280C2400,280,2280,280,2160,280C2040,280,1920,280,1800,280C1680,280,1560,280,1440,280C1320,280,1200,280,1080,280C960,280,840,280,720,280C600,280,480,280,360,280C240,280,120,280,60,280L0,280Z"/><defs><linearGradient id="sw-gradient-1" x1="0" x2="0" y1="1" y2="0"><stop stop-color="rgba(236, 227, 253, 1)" offset="0%"/><stop stop-color="rgba(251, 247, 254, 1)" offset="100%"/></linearGradient></defs><path style="transform:translate(0, 50px); opacity:0.9" fill="url(#sw-gradient-1)" d="M0,0L60,4.7C120,9,240,19,360,42C480,65,600,103,720,121.3C840,140,960,140,1080,126C1200,112,1320,84,1440,79.3C1560,75,1680,93,1800,121.3C1920,149,2040,187,2160,210C2280,233,2400,243,2520,247.3C2640,252,2760,252,2880,214.7C3000,177,3120,103,3240,70C3360,37,3480,47,3600,42C3720,37,3840,19,3960,18.7C4080,19,4200,37,4320,65.3C4440,93,4560,131,4680,140C4800,149,4920,131,5040,107.3C5160,84,5280,56,5400,51.3C5520,47,5640,65,5760,70C5880,75,6000,65,6120,88.7C6240,112,6360,168,6480,168C6600,168,6720,112,6840,84C6960,56,7080,56,7200,84C7320,112,7440,168,7560,158.7C7680,149,7800,75,7920,60.7C8040,47,8160,93,8280,126C8400,159,8520,177,8580,186.7L8640,196L8640,280L8580,280C8520,280,8400,280,8280,280C8160,280,8040,280,7920,280C7800,280,7680,280,7560,280C7440,280,7320,280,7200,280C7080,280,6960,280,6840,280C6720,280,6600,280,6480,280C6360,280,6240,280,6120,280C6000,280,5880,280,5760,280C5640,280,5520,280,5400,280C5280,280,5160,280,5040,280C4920,280,4800,280,4680,280C4560,280,4440,280,4320,280C4200,280,4080,280,3960,280C3840,280,3720,280,3600,280C3480,280,3360,280,3240,280C3120,280,3000,280,2880,280C2760,280,2640,280,2520,280C2400,280,2280,280,2160,280C2040,280,1920,280,1800,280C1680,280,1560,280,1440,280C1320,280,1200,280,1080,280C960,280,840,280,720,280C600,280,480,280,360,280C240,280,120,280,60,280L0,280Z"/></svg>