<?xml version="1.0" standalone="no"?>
<svg xmlns:xlink="http://www.w3.org/1999/xlink" id="wave" style="transform:rotate(0deg); transition: 0.3s" viewBox="0 0 1440 240" version="1.1" xmlns="http://www.w3.org/2000/svg"><defs><linearGradient id="sw-gradient-0" x1="0" x2="0" y1="1" y2="0"><stop stop-color="rgba(231, 221, 254, 1)" offset="0%"/><stop stop-color="rgba(209.731, 192.061, 222.983, 1)" offset="100%"/></linearGradient></defs><path style="transform:translate(0, 0px); opacity:1" fill="url(#sw-gradient-0)" d="M0,168L30,148C60,128,120,88,180,84C240,80,300,112,360,116C420,120,480,96,540,76C600,56,660,40,720,56C780,72,840,120,900,140C960,160,1020,152,1080,136C1140,120,1200,96,1260,72C1320,48,1380,24,1440,16C1500,8,1560,16,1620,16C1680,16,1740,8,1800,20C1860,32,1920,64,1980,100C2040,136,2100,176,2160,184C2220,192,2280,168,2340,136C2400,104,2460,64,2520,56C2580,48,2640,72,2700,88C2760,104,2820,112,2880,104C2940,96,3000,72,3060,88C3120,104,3180,160,3240,152C3300,144,3360,72,3420,72C3480,72,3540,144,3600,164C3660,184,3720,152,3780,124C3840,96,3900,72,3960,56C4020,40,4080,32,4140,28C4200,24,4260,24,4290,24L4320,24L4320,240L4290,240C4260,240,4200,240,4140,240C4080,240,4020,240,3960,240C3900,240,3840,240,3780,240C3720,240,3660,240,3600,240C3540,240,3480,240,3420,240C3360,240,3300,240,3240,240C3180,240,3120,240,3060,240C3000,240,2940,240,2880,240C2820,240,2760,240,2700,240C2640,240,2580,240,2520,240C2460,240,2400,240,2340,240C2280,240,2220,240,2160,240C2100,240,2040,240,1980,240C1920,240,1860,240,1800,240C1740,240,1680,240,1620,240C1560,240,1500,240,1440,240C1380,240,1320,240,1260,240C1200,240,1140,240,1080,240C1020,240,960,240,900,240C840,240,780,240,720,240C660,240,600,240,540,240C480,240,420,240,360,240C300,240,240,240,180,240C120,240,60,240,30,240L0,240Z"/><defs><linearGradient id="sw-gradient-1" x1="0" x2="0" y1="1" y2="0"><stop stop-color="rgba(236, 227, 253, 1)" offset="0%"/><stop stop-color="rgba(251, 247, 254, 1)" offset="100%"/></linearGradient></defs><path style="transform:translate(0, 50px); opacity:0.9" fill="url(#sw-gradient-1)" d="M0,0L30,4C60,8,120,16,180,36C240,56,300,88,360,104C420,120,480,120,540,108C600,96,660,72,720,68C780,64,840,80,900,104C960,128,1020,160,1080,180C1140,200,1200,208,1260,212C1320,216,1380,216,1440,184C1500,152,1560,88,1620,60C1680,32,1740,40,1800,36C1860,32,1920,16,1980,16C2040,16,2100,32,2160,56C2220,80,2280,112,2340,120C2400,128,2460,112,2520,92C2580,72,2640,48,2700,44C2760,40,2820,56,2880,60C2940,64,3000,56,3060,76C3120,96,3180,144,3240,144C3300,144,3360,96,3420,72C3480,48,3540,48,3600,72C3660,96,3720,144,3780,136C3840,128,3900,64,3960,52C4020,40,4080,80,4140,108C4200,136,4260,152,4290,160L4320,168L4320,240L4290,240C4260,240,4200,240,4140,240C4080,240,4020,240,3960,240C3900,240,3840,240,3780,240C3720,240,3660,240,3600,240C3540,240,3480,240,3420,240C3360,240,3300,240,3240,240C3180,240,3120,240,3060,240C3000,240,2940,240,2880,240C2820,240,2760,240,2700,240C2640,240,2580,240,2520,240C2460,240,2400,240,2340,240C2280,240,2220,240,2160,240C2100,240,2040,240,1980,240C1920,240,1860,240,1800,240C1740,240,1680,240,1620,240C1560,240,1500,240,1440,240C1380,240,1320,240,1260,240C1200,240,1140,240,1080,240C1020,240,960,240,900,240C840,240,780,240,720,240C660,240,600,240,540,240C480,240,420,240,360,240C300,240,240,240,180,240C120,240,60,240,30,240L0,240Z"/></svg>