<?xml version="1.0" standalone="no"?>
<svg xmlns:xlink="http://www.w3.org/1999/xlink" id="wave" style="transform:rotate(0deg); transition: 0.3s" viewBox="0 0 1440 100" version="1.1" xmlns="http://www.w3.org/2000/svg"><defs><linearGradient id="sw-gradient-0" x1="0" x2="0" y1="1" y2="0"><stop stop-color="rgba(231, 221, 254, 1)" offset="0%"/><stop stop-color="rgba(209.731, 192.061, 222.983, 1)" offset="100%"/></linearGradient></defs><path style="transform:translate(0, 0px); opacity:1" fill="url(#sw-gradient-0)" d="M0,70L14.1,61.7C28.2,53,56,37,85,35C112.9,33,141,47,169,48.3C197.6,50,226,40,254,31.7C282.4,23,311,17,339,23.3C367.1,30,395,50,424,58.3C451.8,67,480,63,508,56.7C536.5,50,565,40,593,30C621.2,20,649,10,678,6.7C705.9,3,734,7,762,6.7C790.6,7,819,3,847,8.3C875.3,13,904,27,932,41.7C960,57,988,73,1016,76.7C1044.7,80,1073,70,1101,56.7C1129.4,43,1158,27,1186,23.3C1214.1,20,1242,30,1271,36.7C1298.8,43,1327,47,1355,43.3C1383.5,40,1412,30,1440,36.7C1468.2,43,1496,67,1525,63.3C1552.9,60,1581,30,1609,30C1637.6,30,1666,60,1694,68.3C1722.4,77,1751,63,1779,51.7C1807.1,40,1835,30,1864,23.3C1891.8,17,1920,13,1948,11.7C1976.5,10,2005,10,2019,10L2032.9,10L2032.9,100L2018.8,100C2004.7,100,1976,100,1948,100C1920,100,1892,100,1864,100C1835.3,100,1807,100,1779,100C1750.6,100,1722,100,1694,100C1665.9,100,1638,100,1609,100C1581.2,100,1553,100,1525,100C1496.5,100,1468,100,1440,100C1411.8,100,1384,100,1355,100C1327.1,100,1299,100,1271,100C1242.4,100,1214,100,1186,100C1157.6,100,1129,100,1101,100C1072.9,100,1045,100,1016,100C988.2,100,960,100,932,100C903.5,100,875,100,847,100C818.8,100,791,100,762,100C734.1,100,706,100,678,100C649.4,100,621,100,593,100C564.7,100,536,100,508,100C480,100,452,100,424,100C395.3,100,367,100,339,100C310.6,100,282,100,254,100C225.9,100,198,100,169,100C141.2,100,113,100,85,100C56.5,100,28,100,14,100L0,100Z"/><defs><linearGradient id="sw-gradient-1" x1="0" x2="0" y1="1" y2="0"><stop stop-color="rgba(236, 227, 253, 1)" offset="0%"/><stop stop-color="rgba(251, 247, 254, 1)" offset="100%"/></linearGradient></defs><path style="transform:translate(0, 50px); opacity:0.9" fill="url(#sw-gradient-1)" d="M0,0L14.1,1.7C28.2,3,56,7,85,15C112.9,23,141,37,169,43.3C197.6,50,226,50,254,45C282.4,40,311,30,339,28.3C367.1,27,395,33,424,43.3C451.8,53,480,67,508,75C536.5,83,565,87,593,88.3C621.2,90,649,90,678,76.7C705.9,63,734,37,762,25C790.6,13,819,17,847,15C875.3,13,904,7,932,6.7C960,7,988,13,1016,23.3C1044.7,33,1073,47,1101,50C1129.4,53,1158,47,1186,38.3C1214.1,30,1242,20,1271,18.3C1298.8,17,1327,23,1355,25C1383.5,27,1412,23,1440,31.7C1468.2,40,1496,60,1525,60C1552.9,60,1581,40,1609,30C1637.6,20,1666,20,1694,30C1722.4,40,1751,60,1779,56.7C1807.1,53,1835,27,1864,21.7C1891.8,17,1920,33,1948,45C1976.5,57,2005,63,2019,66.7L2032.9,70L2032.9,100L2018.8,100C2004.7,100,1976,100,1948,100C1920,100,1892,100,1864,100C1835.3,100,1807,100,1779,100C1750.6,100,1722,100,1694,100C1665.9,100,1638,100,1609,100C1581.2,100,1553,100,1525,100C1496.5,100,1468,100,1440,100C1411.8,100,1384,100,1355,100C1327.1,100,1299,100,1271,100C1242.4,100,1214,100,1186,100C1157.6,100,1129,100,1101,100C1072.9,100,1045,100,1016,100C988.2,100,960,100,932,100C903.5,100,875,100,847,100C818.8,100,791,100,762,100C734.1,100,706,100,678,100C649.4,100,621,100,593,100C564.7,100,536,100,508,100C480,100,452,100,424,100C395.3,100,367,100,339,100C310.6,100,282,100,254,100C225.9,100,198,100,169,100C141.2,100,113,100,85,100C56.5,100,28,100,14,100L0,100Z"/></svg>